<svg xmlns="http://www.w3.org/2000/svg" viewBox="0 0 715.95 319.96"><defs><style>.cls-1{fill:#2a4465;}</style></defs><title>hotello_logo</title><g id="Layer_2" data-name="Layer 2"><g id="Layer_3" data-name="Layer 3"><path class="cls-1" d="M291.06,287.22q21.48,0,34.39-13.87T338.37,239q0-20.33-12.92-34.2t-34.39-13.87q-21.27,0-34.2,13.87T243.94,239q0,20.32,12.92,34.29T291.06,287.22Zm-19.28-69.83q7.13-8.83,19.28-8.83,12.36,0,19.48,8.83T317.66,239q0,12.91-7.12,21.75t-19.48,8.84q-12.15,0-19.28-8.84T264.65,239Q264.65,226.23,271.78,217.39Z"/><path class="cls-1" d="M362.5,263.66q0,11.4,6,17.48t17.57,6.08q12.54,0,18.81-5.89l-4.75-15q-2.85,3.23-8.93,3.23a7.69,7.69,0,0,1-6.46-2.95,12.53,12.53,0,0,1-2.28-7.88V210.65h18.62V193.17H382.45V168.09H362.5v25.08H347.3v17.48h15.2Z"/><path class="cls-1" d="M461.49,287.22q23.37,0,37.24-13.3l-9.12-13.11a32.59,32.59,0,0,1-11.87,7.41,40.38,40.38,0,0,1-14.16,2.66q-12.54,0-20.33-7.22a27.72,27.72,0,0,1-8.93-18.05h70.87v-4.75q0-21.86-12.44-35.91T460,190.89q-20.14,0-33.34,14T413.42,239q0,21.47,13.58,34.86T461.49,287.22Zm-19.95-72.68q6.65-7.31,18.43-7.31,12.34,0,18.91,7.41a26.52,26.52,0,0,1,6.93,16.91H434.13A27.84,27.84,0,0,1,441.54,214.54Z"/><rect class="cls-1" x="524.95" y="158.21" width="19.95" height="126.73"/><rect class="cls-1" x="570.74" y="158.21" width="19.95" height="126.73"/><path class="cls-1" d="M658,287.22q21.46,0,34.39-13.87T705.26,239q0-20.33-12.92-34.2T658,190.89q-21.29,0-34.2,13.87T610.83,239q0,20.32,12.92,34.29T658,287.22Zm-19.29-69.83q7.13-8.83,19.29-8.83,12.34,0,19.47,8.83T684.55,239q0,12.91-7.13,21.75T658,269.55q-12.16,0-19.29-8.84T631.54,239Q631.54,226.23,638.66,217.39Z"/><path class="cls-1" d="M222.83,304.19V38.67l-8.77-6.3V22.54L182.76,0,150.25,22.9v8.42l-8.42,6.09V178.93H111V93l-9.46-8.36V73.74L69.6,45.62,37,74.09V85l-8.41,7.37V304.19H0V320H716V304.19Zm-145.52,0H69.77V66.72l7.54,6.67Zm13.85,0H83.62V79l7.54,6.66Zm14.21,0H97.83V91.51l7.54,6.66Zm36.46,0H111V229.78h30.86Zm76,0H182.76v-38.5l35.07,25.24Zm0-22.73-35.07-25.25V243l35.07,25.25Zm0-22.73-35.07-25.24V220.23l35.07,25.25Zm0-22.72-35.07-25.25V197.51l35.07,25.24Zm0-22.73L182.76,188V174.78L217.83,200Zm0-22.73-35.07-25.24V152.05l35.07,25.25Zm0-22.72-35.07-25.25V129.33l35.07,25.24Zm0-22.73-35.07-25.25V106.6l35.07,25.24Zm0-22.73L182.76,97.13V83.87l35.07,25.25Zm0-22.72L182.76,74.4V61.14l35.07,25.25Zm0-22.73L182.76,51.67V38.42l35.07,25.24Zm0-22.73L182.76,29V15.69l35.07,25.25Z"/></g></g></svg>