<svg xmlns="http://www.w3.org/2000/svg" viewBox="0 0 50.3 78.76"><g data-name="Layer 2"><path d="M48 8.38V5.84L39.93 0l-8.42 5.93v2.18l-2.19 1.58v36.64h-8V24.07l-2.44-2.16v-2.82l-8.26-7.28-8.44 7.38V22L0 23.91v54.85h10.67V17.28L12.62 19v59.76h1.64v-58.3l2 1.72v56.58h1.72V23.7l1.95 1.72v53.34h1.45V59.5h8v19.26h10.55v-10L49 75.33v3.43h1.3V10zm1 64.5l-9.07-6.54v-3.43L49 69.45zM49 67l-9.07-6.53V57L49 63.56zm0-5.88l-9.07-6.54v-3.44L49 57.68zm0-5.89l-9.07-6.53v-3.45L49 51.8zm0-5.88l-9.07-6.53v-3.45L49 45.91zm0-5.88l-9.07-6.54v-3.44L49 40zm0-5.89L39.93 31v-3.4L49 34.14zm0-5.88l-9.07-6.54v-3.44L49 28.25zm0-5.89l-9.07-6.54v-3.44L49 22.37zm0-5.88l-9.07-6.54V10L49 16.48zM49 14l-9.07-6.5V4.07L49 10.6z" fill="#00aeef" data-name="Layer 3"/></g></svg>
